HIERARCHY
ROOT Hips
{
	OFFSET	0.00	0.00	0.00
	CHANNELS 6 Xposition Yposition Zposition Zrotation Xrotation Yrotation
	JOINT LeftUpLeg
	{
		OFFSET	 0.126116	-0.014019	-0.065224
		CHANNELS 3 Zrotation Xrotation Yrotation
		JOINT LeftLeg
		{
			OFFSET	 0.000000	 0.000000	 0.569914
			CHANNELS 3 Zrotation Xrotation Yrotation
			JOINT LeftFoot
			{
				OFFSET	 0.000000	 0.000000	 0.544423
				CHANNELS 3 Zrotation Xrotation Yrotation
				JOINT LeftToeBase
				{
					OFFSET	 0.000000	 0.000000	 0.207117
					CHANNELS 3 Zrotation Xrotation Yrotation
					End Site
					{
						OFFSET	 0.000000	 0.000000	 0.207117
					}
				}
			}
		}
	}
	JOINT RightUpLeg
	{
		OFFSET	-0.124023	-0.008373	-0.065224
		CHANNELS 3 Zrotation Xrotation Yrotation
		JOINT RightLeg
		{
			OFFSET	 0.000000	 0.000000	 0.570047
			CHANNELS 3 Zrotation Xrotation Yrotation
			JOINT RightFoot
			{
				OFFSET	 0.000000	 0.000000	 0.544354
				CHANNELS 3 Zrotation Xrotation Yrotation
				JOINT RightToeBase
				{
					OFFSET	 0.000000	 0.000000	 0.207540
					CHANNELS 3 Zrotation Xrotation Yrotation
					End Site
					{
						OFFSET	 0.000000	 0.000000	 0.207540
					}
				}
			}
		}
	}
	JOINT Spine
	{
		OFFSET	 0.000184	-0.007763	 0.117403
		CHANNELS 3 Zrotation Xrotation Yrotation
		JOINT Spine1
		{
			OFFSET	 0.000000	 0.000000	 0.137269
			CHANNELS 3 Zrotation Xrotation Yrotation
			JOINT Spine2
			{
				OFFSET	 0.000000	 0.000000	 0.156879
				CHANNELS 3 Zrotation Xrotation Yrotation
				JOINT LeftShoulder
				{
					OFFSET	 0.080501	-0.002496	 0.160144
					CHANNELS 3 Zrotation Xrotation Yrotation
					JOINT LeftArm
					{
						OFFSET	 0.000000	 0.000000	 0.164363
						CHANNELS 3 Zrotation Xrotation Yrotation
						JOINT LeftForeArm
						{
							OFFSET	 0.000000	 0.000000	 0.364576
							CHANNELS 3 Zrotation Xrotation Yrotation
							JOINT LeftHand
							{
								OFFSET	 0.000000	 0.000000	 0.360812
								CHANNELS 3 Zrotation Xrotation Yrotation
								JOINT LeftHandIndex1
								{
									OFFSET	 0.000000	 0.000000	 0.086006
									CHANNELS 3 Zrotation Xrotation Yrotation
									JOINT LeftHandIndex2
									{
										OFFSET	 0.000000	 0.000000	 0.047237
										CHANNELS 3 Zrotation Xrotation Yrotation
										JOINT LeftHandIndex3
										{
											OFFSET	-0.004284	-0.000551	 0.038165
											CHANNELS 3 Zrotation Xrotation Yrotation
											End Site
											{
												OFFSET	-0.004284	-0.000551	 0.038165
											}
										}
									}
								}
							}
						}
					}
				}
				JOINT Neck
				{
					OFFSET	 0.000000	 0.000000	 0.176489
					CHANNELS 3 Zrotation Xrotation Yrotation
					JOINT Head
					{
						OFFSET	 0.000000	-0.001747	 0.077940
						CHANNELS 3 Zrotation Xrotation Yrotation
						End Site
						{
							OFFSET	 0.000000	-0.001747	 0.077940
						}
					}
				}
				JOINT RightShoulder
				{
					OFFSET	-0.080363	 0.000306	 0.159706
					CHANNELS 3 Zrotation Xrotation Yrotation
					JOINT RightArm
					{
						OFFSET	 0.000000	 0.000000	 0.164196
						CHANNELS 3 Zrotation Xrotation Yrotation
						JOINT RightForeArm
						{
							OFFSET	 0.000000	 0.000000	 0.365611
							CHANNELS 3 Zrotation Xrotation Yrotation
							JOINT RightHand
							{
								OFFSET	 0.000000	 0.000000	 0.360648
								CHANNELS 3 Zrotation Xrotation Yrotation
								JOINT RightHandIndex1
								{
									OFFSET	 0.000000	 0.000000	 0.069977
									CHANNELS 3 Zrotation Xrotation Yrotation
									JOINT RightHandIndex2
									{
										OFFSET	 0.000000	 0.000000	 0.052305
										CHANNELS 3 Zrotation Xrotation Yrotation
										JOINT RightHandIndex3
										{
											OFFSET	 0.009002	-0.000782	 0.042196
											CHANNELS 3 Zrotation Xrotation Yrotation
											End Site
											{
												OFFSET	 0.009002	-0.000782	 0.042196
											}
										}
									}
								}
							}
						}
					}
				}
			}
		}
	}
}
MOTION
Frames:    5
Frame Time: 0.03333334
-0.410733	 0.215384	 1.244068	-175.125300	 12.457420	 11.906200	 21.518130	-8.478878	 178.035900	-7.930947	-37.210450	-5.159698	 118.776900	 68.932830	-132.291700	-2.385833	 28.452760	 0.000004	-5.915714	-46.187410	 160.199900	 5.944584	-49.503770	 3.365472	-7.525373	 72.621060	 24.422420	 2.384659	 28.388700	-0.000001	 49.437010	-21.875280	 20.974390	 49.860180	 19.072320	 7.033199	-20.521150	-5.604135	-23.362560	-91.776180	 78.527360	 180.000000	 2.569601	 40.777390	 3.798267	-2.869364	-3.026707	-106.275500	 4.163200	-55.481840	-0.956994	-4.130319	 21.525730	 0.991547	-5.167930	 0.731704	 3.519349	-1.378229	 35.397820	-2.634230	-17.727850	 7.824458	 7.558555	-26.831500	-22.326900	-16.885900	 89.782100	 78.203920	 180.000000	 93.733310	 2.783601	 3.141924	-15.934140	-6.640437	 33.577150	-112.580000	 3.862024	-89.204560	 5.716227	 19.173190	-3.685159	 5.027444	 0.246877	-9.377972	-2.350882	 35.473990	 5.254307
-0.415377	 0.226911	 1.247583	-173.418600	 11.418440	 9.700466	 22.476060	-3.939910	 179.122500	-8.221274	-32.665010	-4.766716	 117.185600	 68.348610	-129.477700	-2.385833	 28.452760	 0.000004	-2.343839	-44.999370	 164.491700	 5.921231	-50.265890	 3.385312	-3.841688	 74.266040	 20.128440	 2.384659	 28.388700	-0.000001	 45.864840	-19.004180	 20.945360	 46.377700	 17.819480	 9.149848	-19.525350	-5.091477	-22.642770	-91.776180	 78.527350	 180.000000	-0.894346	 39.657020	 11.262390	-2.932898	-2.902800	-108.071300	 4.999231	-56.718520	-0.562199	-4.130319	 21.525730	 0.991547	-5.167930	 0.731704	 3.519349	-1.378229	 35.397820	-2.634230	-17.029250	 7.677037	 8.284761	-26.040290	-22.059300	-17.441590	 89.782090	 78.203890	-180.000000	 84.789920	-5.689036	 11.092530	-15.910730	-3.772316	 20.735910	-111.114800	-1.163916	-88.022320	 5.716227	 19.173190	-3.685159	 5.027444	 0.246877	-9.377972	-2.350882	 35.473990	 5.254307
-0.417206	 0.231655	 1.249125	-172.328600	 10.685610	 9.187896	 23.135300	-2.012006	 178.837100	-8.448788	-30.667580	-4.623927	 116.997700	 68.068800	-128.809400	-2.385833	 28.452760	 0.000004	-0.821191	-44.169930	 165.883100	 5.740364	-50.283420	 3.246716	-1.134671	 74.930580	 16.797960	 2.384659	 28.388700	-0.000001	 43.467300	-18.056310	 20.191410	 44.761760	 16.933750	 10.620360	-18.794150	-4.542153	-22.390980	-91.776120	 78.527380	 180.000000	-3.492558	 40.000480	 15.000330	-2.867566	-2.572005	-108.922700	 5.360439	-57.915250	-0.497863	-4.130319	 21.525730	 0.991547	-5.167930	 0.731704	 3.519349	-1.378229	 35.397820	-2.634230	-16.449380	 7.674780	 8.234737	-25.552590	-22.304250	-16.909440	 89.782040	 78.203890	-180.000000	 79.636750	-8.771997	 11.781430	-16.051650	-3.409207	 18.637840	-110.337200	-2.072765	-87.603510	 5.716227	 19.173190	-3.685159	 5.027444	 0.246877	-9.377972	-2.350882	 35.473990	 5.254307
-0.417968	 0.235276	 1.250597	-171.166700	 10.026110	 8.802570	 23.609090	-0.717362	 178.424800	-9.005900	-29.336160	-4.720681	 115.944500	 67.772030	-127.327300	-2.385833	 28.452760	 0.000004	 0.900010	-43.309040	 167.080100	 5.287639	-49.858160	 2.879876	 2.865265	 75.189670	 12.116160	 2.384659	 28.388700	-0.000001	 40.870740	-17.202180	 19.182780	 43.208210	 15.858960	 12.244250	-17.760840	-3.456562	-22.095390	-91.776180	 78.527360	 180.000000	-6.927788	 40.711250	 18.201930	-2.677588	-1.959369	-109.439100	 5.508678	-59.399100	-0.721630	-4.130319	 21.525730	 0.991547	-5.167930	 0.731704	 3.519349	-1.378229	 35.397820	-2.634230	-15.775340	 8.194375	 8.622764	-25.091460	-22.469330	-17.682730	 89.782100	 78.203890	-180.000000	 73.085670	-11.471260	 11.828720	-16.088570	-2.986801	 16.405370	-108.505400	-1.748351	-87.983150	 5.716227	 19.173190	-3.685159	 5.027444	 0.246877	-9.377972	-2.350882	 35.473990	 5.254307
-0.417684	 0.236359	 1.251296	-170.243600	 9.187206	 8.239216	 23.934580	 0.398354	 178.226100	-9.660751	-28.657070	-4.942599	 117.014500	 67.468600	-127.773200	-2.385833	 28.452760	 0.000004	 2.810483	-42.414000	 168.370700	 4.724614	-49.483050	 2.435243	 5.727808	 75.187520	 9.107130	 2.384659	 28.388700	-0.000001	 38.914670	-15.409370	 18.325910	 41.825610	 14.685990	 13.665390	-16.943180	-3.124059	-21.520980	-91.776310	 78.527380	-179.999900	-9.531939	 41.309700	 20.150680	-2.511280	-1.472846	-109.621100	 5.599719	-60.350360	-0.984304	-4.130319	 21.525730	 0.991547	-5.167930	 0.731704	 3.519349	-1.378229	 35.397820	-2.634230	-14.686790	 8.981189	 7.583615	-24.465140	-23.438180	-16.380610	 89.782150	 78.203870	 179.999900	 67.349170	-12.979470	 9.726935	-15.754640	-3.183744	 17.995550	-105.981500	-1.136732	-88.103450	 5.716227	 19.173190	-3.685159	 5.027444	 0.246877	-9.377972	-2.350882	 35.473990	 5.254307
